<?xml version="1.0" encoding="utf-8" ?>
<svg baseProfile="full" height="273px" preserveAspectRatio="xMidYMid meet" style="font-family: &quot;Noto Sans Bengali&quot;; font-weight:normal; font-style: normal; font-size: 26px;" version="1.1" viewBox="0,0,1027.0,273.0" width="1027px" xmlns="http://www.w3.org/2000/svg" xmlns:ev="http://www.w3.org/2001/xml-events" xmlns:xlink="http://www.w3.org/1999/xlink">
  <defs/>
  <svg width="100%" x="0" y="0px">
    <defs/>
    <text text-anchor="middle" x="50%" y="26px">htd13877</text>
  </svg>
  <svg width="78.481%" x="0%" y="78px">
    <defs/>
    <svg width="100%" x="0" y="0px">
      <defs/>
      <text text-anchor="middle" x="50%" y="26px">NP</text>
    </svg>
    <svg width="11.2903%" x="0%" y="78px">
      <defs/>
      <svg width="100%" x="0" y="0px">
        <defs/>
        <text text-anchor="middle" x="50%" y="26px">N_NST</text>
      </svg>
      <svg width="100%" x="0%" y="78px">
        <defs/>
        <svg width="100%" x="0" y="0px">
          <defs/>
          <text text-anchor="middle" x="50%" y="26px">এখানে</text>
        </svg>
      </svg>
      <line stroke="black" x1="50%" x2="50%" y1="31.2px" y2="78px"/>
    </svg>
    <line stroke="black" x1="50%" x2="5.64516%" y1="31.2px" y2="78px"/>
    <svg width="14.5161%" x="11.2903%" y="78px">
      <defs/>
      <svg width="100%" x="0" y="0px">
        <defs/>
        <text text-anchor="middle" x="50%" y="26px">N_NN</text>
      </svg>
      <svg width="100%" x="0%" y="78px">
        <defs/>
        <svg width="100%" x="0" y="0px">
          <defs/>
          <text text-anchor="middle" x="50%" y="26px">বিশ্বের</text>
        </svg>
      </svg>
      <line stroke="black" x1="50%" x2="50%" y1="31.2px" y2="78px"/>
    </svg>
    <line stroke="black" x1="50%" x2="18.5484%" y1="31.2px" y2="78px"/>
    <svg width="11.2903%" x="25.8065%" y="78px">
      <defs/>
      <svg width="100%" x="0" y="0px">
        <defs/>
        <text text-anchor="middle" x="50%" y="26px">PSP</text>
      </svg>
      <svg width="100%" x="0%" y="78px">
        <defs/>
        <svg width="100%" x="0" y="0px">
          <defs/>
          <text text-anchor="middle" x="50%" y="26px">মধ্যে</text>
        </svg>
      </svg>
      <line stroke="black" x1="50%" x2="50%" y1="31.2px" y2="78px"/>
    </svg>
    <line stroke="black" x1="50%" x2="31.4516%" y1="31.2px" y2="78px"/>
    <svg width="14.5161%" x="37.0968%" y="78px">
      <defs/>
      <svg width="100%" x="0" y="0px">
        <defs/>
        <text text-anchor="middle" x="50%" y="26px">RP_INTF</text>
      </svg>
      <svg width="100%" x="0%" y="78px">
        <defs/>
        <svg width="100%" x="0" y="0px">
          <defs/>
          <text text-anchor="middle" x="50%" y="26px">সবথেকে</text>
        </svg>
      </svg>
      <line stroke="black" x1="50%" x2="50%" y1="31.2px" y2="78px"/>
    </svg>
    <line stroke="black" x1="50%" x2="44.3548%" y1="31.2px" y2="78px"/>
    <svg width="8.06452%" x="51.6129%" y="78px">
      <defs/>
      <svg width="100%" x="0" y="0px">
        <defs/>
        <text text-anchor="middle" x="50%" y="26px">JJ</text>
      </svg>
      <svg width="100%" x="0%" y="78px">
        <defs/>
        <svg width="100%" x="0" y="0px">
          <defs/>
          <text text-anchor="middle" x="50%" y="26px">বড়</text>
        </svg>
      </svg>
      <line stroke="black" x1="50%" x2="50%" y1="31.2px" y2="78px"/>
    </svg>
    <line stroke="black" x1="50%" x2="55.6452%" y1="31.2px" y2="78px"/>
    <svg width="17.7419%" x="59.6774%" y="78px">
      <defs/>
      <svg width="100%" x="0" y="0px">
        <defs/>
        <text text-anchor="middle" x="50%" y="26px">JJ</text>
      </svg>
      <svg width="100%" x="0%" y="78px">
        <defs/>
        <svg width="100%" x="0" y="0px">
          <defs/>
          <text text-anchor="middle" x="50%" y="26px">স্তনপায়ী</text>
        </svg>
      </svg>
      <line stroke="black" x1="50%" x2="50%" y1="31.2px" y2="78px"/>
    </svg>
    <line stroke="black" x1="50%" x2="68.5484%" y1="31.2px" y2="78px"/>
    <svg width="11.2903%" x="77.4194%" y="78px">
      <defs/>
      <svg width="100%" x="0" y="0px">
        <defs/>
        <text text-anchor="middle" x="50%" y="26px">N-NNP</text>
      </svg>
      <svg width="100%" x="0%" y="78px">
        <defs/>
        <svg width="100%" x="0" y="0px">
          <defs/>
          <text text-anchor="middle" x="50%" y="26px">ব্লু</text>
        </svg>
      </svg>
      <line stroke="black" x1="50%" x2="50%" y1="31.2px" y2="78px"/>
    </svg>
    <line stroke="black" x1="50%" x2="83.0645%" y1="31.2px" y2="78px"/>
    <svg width="11.2903%" x="88.7097%" y="78px">
      <defs/>
      <svg width="100%" x="0" y="0px">
        <defs/>
        <text text-anchor="middle" x="50%" y="26px">N-NNP</text>
      </svg>
      <svg width="100%" x="0%" y="78px">
        <defs/>
        <svg width="100%" x="0" y="0px">
          <defs/>
          <text text-anchor="middle" x="50%" y="26px">ওয়েল</text>
        </svg>
      </svg>
      <line stroke="black" x1="50%" x2="50%" y1="31.2px" y2="78px"/>
    </svg>
    <line stroke="black" x1="50%" x2="94.3548%" y1="31.2px" y2="78px"/>
  </svg>
  <line stroke="black" x1="50%" x2="39.2405%" y1="31.2px" y2="78px"/>
  <svg width="10.1266%" x="78.481%" y="78px">
    <defs/>
    <svg width="100%" x="0" y="0px">
      <defs/>
      <text text-anchor="middle" x="50%" y="26px">VGF</text>
    </svg>
    <svg width="100%" x="0%" y="78px">
      <defs/>
      <svg width="100%" x="0" y="0px">
        <defs/>
        <text text-anchor="middle" x="50%" y="26px">V_VAUX</text>
      </svg>
      <svg width="100%" x="0%" y="78px">
        <defs/>
        <svg width="100%" x="0" y="0px">
          <defs/>
          <text text-anchor="middle" x="50%" y="26px">আছে</text>
        </svg>
      </svg>
      <line stroke="black" x1="50%" x2="50%" y1="31.2px" y2="78px"/>
    </svg>
    <line stroke="black" x1="50%" x2="50%" y1="31.2px" y2="78px"/>
  </svg>
  <line stroke="black" x1="50%" x2="83.5443%" y1="31.2px" y2="78px"/>
  <svg width="11.3924%" x="88.6076%" y="78px">
    <defs/>
    <svg width="100%" x="0" y="0px">
      <defs/>
      <text text-anchor="middle" x="50%" y="26px">BLK</text>
    </svg>
    <svg width="100%" x="0%" y="78px">
      <defs/>
      <svg width="100%" x="0" y="0px">
        <defs/>
        <text text-anchor="middle" x="50%" y="26px">RD_PUNC</text>
      </svg>
      <svg width="100%" x="0%" y="78px">
        <defs/>
        <svg width="100%" x="0" y="0px">
          <defs/>
          <text text-anchor="middle" x="50%" y="26px">৷</text>
        </svg>
      </svg>
      <line stroke="black" x1="50%" x2="50%" y1="31.2px" y2="78px"/>
    </svg>
    <line stroke="black" x1="50%" x2="50%" y1="31.2px" y2="78px"/>
  </svg>
  <line stroke="black" x1="50%" x2="94.3038%" y1="31.2px" y2="78px"/>
</svg>
