<?xml version="1.0" encoding="utf-8" ?>
<svg baseProfile="full" height="351px" preserveAspectRatio="xMidYMid meet" style="font-family: &quot;Noto Sans Bengali&quot;; font-weight:normal; font-style: normal; font-size: 26px;" version="1.1" viewBox="0,0,1430.0,351.0" width="1430px" xmlns="http://www.w3.org/2000/svg" xmlns:ev="http://www.w3.org/2001/xml-events" xmlns:xlink="http://www.w3.org/1999/xlink">
  <defs/>
  <svg width="100%" x="0" y="0px">
    <defs/>
    <text text-anchor="middle" x="50%" y="26px">htd21358</text>
  </svg>
  <svg width="24.5455%" x="0%" y="78px">
    <defs/>
    <svg width="100%" x="0" y="0px">
      <defs/>
      <text text-anchor="middle" x="50%" y="26px">NP</text>
    </svg>
    <svg width="37.037%" x="0%" y="78px">
      <defs/>
      <svg width="100%" x="0" y="0px">
        <defs/>
        <text text-anchor="middle" x="50%" y="26px">N_NN</text>
      </svg>
      <svg width="100%" x="0%" y="78px">
        <defs/>
        <svg width="100%" x="0" y="0px">
          <defs/>
          <text text-anchor="middle" x="50%" y="26px">মন্দিরের</text>
        </svg>
      </svg>
      <line stroke="black" x1="50%" x2="50%" y1="31.2px" y2="78px"/>
    </svg>
    <line stroke="black" x1="50%" x2="18.5185%" y1="31.2px" y2="78px"/>
    <svg width="25.9259%" x="37.037%" y="78px">
      <defs/>
      <svg width="100%" x="0" y="0px">
        <defs/>
        <text text-anchor="middle" x="50%" y="26px">JJ</text>
      </svg>
      <svg width="100%" x="0%" y="78px">
        <defs/>
        <svg width="100%" x="0" y="0px">
          <defs/>
          <text text-anchor="middle" x="50%" y="26px">বিশাল</text>
        </svg>
      </svg>
      <line stroke="black" x1="50%" x2="50%" y1="31.2px" y2="78px"/>
    </svg>
    <line stroke="black" x1="50%" x2="50%" y1="31.2px" y2="78px"/>
    <svg width="37.037%" x="62.963%" y="78px">
      <defs/>
      <svg width="100%" x="0" y="0px">
        <defs/>
        <text text-anchor="middle" x="50%" y="26px">N_NN</text>
      </svg>
      <svg width="100%" x="0%" y="78px">
        <defs/>
        <svg width="100%" x="0" y="0px">
          <defs/>
          <text text-anchor="middle" x="50%" y="26px">শিবলিঙ্গ</text>
        </svg>
      </svg>
      <line stroke="black" x1="50%" x2="50%" y1="31.2px" y2="78px"/>
    </svg>
    <line stroke="black" x1="50%" x2="81.4815%" y1="31.2px" y2="78px"/>
  </svg>
  <line stroke="black" x1="50%" x2="12.2727%" y1="31.2px" y2="78px"/>
  <svg width="7.27273%" x="24.5455%" y="78px">
    <defs/>
    <svg width="100%" x="0" y="0px">
      <defs/>
      <text text-anchor="middle" x="50%" y="26px">VGF</text>
    </svg>
    <svg width="100%" x="0%" y="78px">
      <defs/>
      <svg width="100%" x="0" y="0px">
        <defs/>
        <text text-anchor="middle" x="50%" y="26px">V_VAUX</text>
      </svg>
      <svg width="100%" x="0%" y="78px">
        <defs/>
        <svg width="100%" x="0" y="0px">
          <defs/>
          <text text-anchor="middle" x="50%" y="26px">হল</text>
        </svg>
      </svg>
      <line stroke="black" x1="50%" x2="50%" y1="31.2px" y2="78px"/>
    </svg>
    <line stroke="black" x1="50%" x2="50%" y1="31.2px" y2="78px"/>
  </svg>
  <line stroke="black" x1="50%" x2="28.1818%" y1="31.2px" y2="78px"/>
  <svg width="35.4545%" x="31.8182%" y="78px">
    <defs/>
    <svg width="100%" x="0" y="0px">
      <defs/>
      <text text-anchor="middle" x="50%" y="26px">NP</text>
    </svg>
    <svg width="20.5128%" x="0%" y="78px">
      <defs/>
      <svg width="100%" x="0" y="0px">
        <defs/>
        <text text-anchor="middle" x="50%" y="26px">QT_QTC</text>
      </svg>
      <svg width="100%" x="0%" y="78px">
        <defs/>
        <svg width="100%" x="0" y="0px">
          <defs/>
          <text text-anchor="middle" x="50%" y="26px">৭.৯০</text>
        </svg>
      </svg>
      <line stroke="black" x1="50%" x2="50%" y1="31.2px" y2="78px"/>
    </svg>
    <line stroke="black" x1="50%" x2="10.2564%" y1="31.2px" y2="78px"/>
    <svg width="17.9487%" x="20.5128%" y="78px">
      <defs/>
      <svg width="100%" x="0" y="0px">
        <defs/>
        <text text-anchor="middle" x="50%" y="26px">N_NN</text>
      </svg>
      <svg width="100%" x="0%" y="78px">
        <defs/>
        <svg width="100%" x="0" y="0px">
          <defs/>
          <text text-anchor="middle" x="50%" y="26px">মিটার</text>
        </svg>
      </svg>
      <line stroke="black" x1="50%" x2="50%" y1="31.2px" y2="78px"/>
    </svg>
    <line stroke="black" x1="50%" x2="29.4872%" y1="31.2px" y2="78px"/>
    <svg width="61.5385%" x="38.4615%" y="78px">
      <defs/>
      <svg width="100%" x="0" y="0px">
        <defs/>
        <text text-anchor="middle" x="50%" y="26px">RD_SYM</text>
      </svg>
      <svg width="8.33333%" x="0%" y="78px">
        <defs/>
        <svg width="100%" x="0" y="13px">
          <defs/>
        </svg>
      </svg>
      <line stroke="black" x1="50%" x2="4.16667%" y1="31.2px" y2="91px"/>
      <svg width="33.3333%" x="8.33333%" y="78px">
        <defs/>
        <svg width="100%" x="0" y="0px">
          <defs/>
          <text text-anchor="middle" x="50%" y="26px">QT_QTC</text>
        </svg>
        <svg width="100%" x="0%" y="78px">
          <defs/>
          <svg width="100%" x="0" y="0px">
            <defs/>
            <text text-anchor="middle" x="50%" y="26px">২৬</text>
          </svg>
        </svg>
        <line stroke="black" x1="50%" x2="50%" y1="31.2px" y2="78px"/>
      </svg>
      <line stroke="black" x1="50%" x2="25%" y1="31.2px" y2="78px"/>
      <svg width="25%" x="41.6667%" y="78px">
        <defs/>
        <svg width="100%" x="0" y="0px">
          <defs/>
          <text text-anchor="middle" x="50%" y="26px">N_NN</text>
        </svg>
        <svg width="100%" x="0%" y="78px">
          <defs/>
          <svg width="100%" x="0" y="0px">
            <defs/>
            <text text-anchor="middle" x="50%" y="26px">ফুট</text>
          </svg>
        </svg>
        <line stroke="black" x1="50%" x2="50%" y1="31.2px" y2="78px"/>
      </svg>
      <line stroke="black" x1="50%" x2="54.1667%" y1="31.2px" y2="78px"/>
      <svg width="33.3333%" x="66.6667%" y="78px">
        <defs/>
        <svg width="100%" x="0" y="0px">
          <defs/>
          <text text-anchor="middle" x="50%" y="26px">RD_SYM</text>
        </svg>
      </svg>
      <line stroke="black" x1="50%" x2="83.3333%" y1="31.2px" y2="78px"/>
    </svg>
    <line stroke="black" x1="50%" x2="69.2308%" y1="31.2px" y2="78px"/>
  </svg>
  <line stroke="black" x1="50%" x2="49.5455%" y1="31.2px" y2="78px"/>
  <svg width="18.1818%" x="67.2727%" y="78px">
    <defs/>
    <svg width="100%" x="0" y="0px">
      <defs/>
      <text text-anchor="middle" x="50%" y="26px">NP</text>
    </svg>
    <svg width="30%" x="0%" y="78px">
      <defs/>
      <svg width="100%" x="0" y="0px">
        <defs/>
        <text text-anchor="middle" x="50%" y="26px">JJ</text>
      </svg>
      <svg width="100%" x="0%" y="78px">
        <defs/>
        <svg width="100%" x="0" y="0px">
          <defs/>
          <text text-anchor="middle" x="50%" y="26px">উঁচু</text>
        </svg>
      </svg>
      <line stroke="black" x1="50%" x2="50%" y1="31.2px" y2="78px"/>
    </svg>
    <line stroke="black" x1="50%" x2="15%" y1="31.2px" y2="78px"/>
    <svg width="35%" x="30%" y="78px">
      <defs/>
      <svg width="100%" x="0" y="0px">
        <defs/>
        <text text-anchor="middle" x="50%" y="26px">N_NNP</text>
      </svg>
      <svg width="100%" x="0%" y="78px">
        <defs/>
        <svg width="100%" x="0" y="0px">
          <defs/>
          <text text-anchor="middle" x="50%" y="26px">গৌরী</text>
        </svg>
      </svg>
      <line stroke="black" x1="50%" x2="50%" y1="31.2px" y2="78px"/>
    </svg>
    <line stroke="black" x1="50%" x2="47.5%" y1="31.2px" y2="78px"/>
    <svg width="35%" x="65%" y="78px">
      <defs/>
      <svg width="100%" x="0" y="0px">
        <defs/>
        <text text-anchor="middle" x="50%" y="26px">N_NNP</text>
      </svg>
      <svg width="100%" x="0%" y="78px">
        <defs/>
        <svg width="100%" x="0" y="0px">
          <defs/>
          <text text-anchor="middle" x="50%" y="26px">পট্টে</text>
        </svg>
      </svg>
      <line stroke="black" x1="50%" x2="50%" y1="31.2px" y2="78px"/>
    </svg>
    <line stroke="black" x1="50%" x2="82.5%" y1="31.2px" y2="78px"/>
  </svg>
  <line stroke="black" x1="50%" x2="76.3636%" y1="31.2px" y2="78px"/>
  <svg width="6.36364%" x="85.4545%" y="78px">
    <defs/>
    <svg width="100%" x="0" y="0px">
      <defs/>
      <text text-anchor="middle" x="50%" y="26px">JJP</text>
    </svg>
    <svg width="100%" x="0%" y="78px">
      <defs/>
      <svg width="100%" x="0" y="0px">
        <defs/>
        <text text-anchor="middle" x="50%" y="26px">JJ</text>
      </svg>
      <svg width="100%" x="0%" y="78px">
        <defs/>
        <svg width="100%" x="0" y="0px">
          <defs/>
          <text text-anchor="middle" x="50%" y="26px">স্থিত</text>
        </svg>
      </svg>
      <line stroke="black" x1="50%" x2="50%" y1="31.2px" y2="78px"/>
    </svg>
    <line stroke="black" x1="50%" x2="50%" y1="31.2px" y2="78px"/>
  </svg>
  <line stroke="black" x1="50%" x2="88.6364%" y1="31.2px" y2="78px"/>
  <svg width="8.18182%" x="91.8182%" y="78px">
    <defs/>
    <svg width="100%" x="0" y="0px">
      <defs/>
      <text text-anchor="middle" x="50%" y="26px">BLK</text>
    </svg>
    <svg width="100%" x="0%" y="78px">
      <defs/>
      <svg width="100%" x="0" y="0px">
        <defs/>
        <text text-anchor="middle" x="50%" y="26px">RD_PUNC</text>
      </svg>
      <svg width="100%" x="0%" y="78px">
        <defs/>
        <svg width="100%" x="0" y="0px">
          <defs/>
          <text text-anchor="middle" x="50%" y="26px">৷</text>
        </svg>
      </svg>
      <line stroke="black" x1="50%" x2="50%" y1="31.2px" y2="78px"/>
    </svg>
    <line stroke="black" x1="50%" x2="50%" y1="31.2px" y2="78px"/>
  </svg>
  <line stroke="black" x1="50%" x2="95.9091%" y1="31.2px" y2="78px"/>
</svg>
