<?xml version="1.0" encoding="utf-8" ?>
<svg baseProfile="full" height="273px" preserveAspectRatio="xMidYMid meet" style="font-family: &quot;Noto Sans Bengali&quot;; font-weight:normal; font-style: normal; font-size: 26px;" version="1.1" viewBox="0,0,1742.0,273.0" width="1742px" xmlns="http://www.w3.org/2000/svg" xmlns:ev="http://www.w3.org/2001/xml-events" xmlns:xlink="http://www.w3.org/1999/xlink">
  <defs/>
  <svg width="100%" x="0" y="0px">
    <defs/>
    <text text-anchor="middle" x="50%" y="26px">htd5092</text>
  </svg>
  <svg width="5.22388%" x="0%" y="78px">
    <defs/>
    <svg width="100%" x="0" y="0px">
      <defs/>
      <text text-anchor="middle" x="50%" y="26px">RBP</text>
    </svg>
    <svg width="100%" x="0%" y="78px">
      <defs/>
      <svg width="100%" x="0" y="0px">
        <defs/>
        <text text-anchor="middle" x="50%" y="26px">N_NST</text>
      </svg>
      <svg width="100%" x="0%" y="78px">
        <defs/>
        <svg width="100%" x="0" y="0px">
          <defs/>
          <text text-anchor="middle" x="50%" y="26px">ওখানে</text>
        </svg>
      </svg>
      <line stroke="black" x1="50%" x2="50%" y1="31.2px" y2="78px"/>
    </svg>
    <line stroke="black" x1="50%" x2="50%" y1="31.2px" y2="78px"/>
  </svg>
  <line stroke="black" x1="50%" x2="2.61194%" y1="31.2px" y2="78px"/>
  <svg width="12.6866%" x="5.22388%" y="78px">
    <defs/>
    <svg width="100%" x="0" y="0px">
      <defs/>
      <text text-anchor="middle" x="50%" y="26px">NP</text>
    </svg>
    <svg width="52.9412%" x="0%" y="78px">
      <defs/>
      <svg width="100%" x="0" y="0px">
        <defs/>
        <text text-anchor="middle" x="50%" y="26px">JJ</text>
      </svg>
      <svg width="100%" x="0%" y="78px">
        <defs/>
        <svg width="100%" x="0" y="0px">
          <defs/>
          <text text-anchor="middle" x="50%" y="26px">বিভিন্ন</text>
        </svg>
      </svg>
      <line stroke="black" x1="50%" x2="50%" y1="31.2px" y2="78px"/>
    </svg>
    <line stroke="black" x1="50%" x2="26.4706%" y1="31.2px" y2="78px"/>
    <svg width="47.0588%" x="52.9412%" y="78px">
      <defs/>
      <svg width="100%" x="0" y="0px">
        <defs/>
        <text text-anchor="middle" x="50%" y="26px">N_NN</text>
      </svg>
      <svg width="100%" x="0%" y="78px">
        <defs/>
        <svg width="100%" x="0" y="0px">
          <defs/>
          <text text-anchor="middle" x="50%" y="26px">বয়সের</text>
        </svg>
      </svg>
      <line stroke="black" x1="50%" x2="50%" y1="31.2px" y2="78px"/>
    </svg>
    <line stroke="black" x1="50%" x2="76.4706%" y1="31.2px" y2="78px"/>
  </svg>
  <line stroke="black" x1="50%" x2="11.5672%" y1="31.2px" y2="78px"/>
  <svg width="5.97015%" x="17.9104%" y="78px">
    <defs/>
    <svg width="100%" x="0" y="0px">
      <defs/>
      <text text-anchor="middle" x="50%" y="26px">CCP</text>
    </svg>
    <svg width="100%" x="0%" y="78px">
      <defs/>
      <svg width="100%" x="0" y="0px">
        <defs/>
        <text text-anchor="middle" x="50%" y="26px">CC_CCD</text>
      </svg>
      <svg width="100%" x="0%" y="78px">
        <defs/>
        <svg width="100%" x="0" y="0px">
          <defs/>
          <text text-anchor="middle" x="50%" y="26px">এবং</text>
        </svg>
      </svg>
      <line stroke="black" x1="50%" x2="50%" y1="31.2px" y2="78px"/>
    </svg>
    <line stroke="black" x1="50%" x2="50%" y1="31.2px" y2="78px"/>
  </svg>
  <line stroke="black" x1="50%" x2="20.8955%" y1="31.2px" y2="78px"/>
  <svg width="24.6269%" x="23.8806%" y="78px">
    <defs/>
    <svg width="100%" x="0" y="0px">
      <defs/>
      <text text-anchor="middle" x="50%" y="26px">NP</text>
    </svg>
    <svg width="24.2424%" x="0%" y="78px">
      <defs/>
      <svg width="100%" x="0" y="0px">
        <defs/>
        <text text-anchor="middle" x="50%" y="26px">N_NN</text>
      </svg>
      <svg width="100%" x="0%" y="78px">
        <defs/>
        <svg width="100%" x="0" y="0px">
          <defs/>
          <text text-anchor="middle" x="50%" y="26px">স্ত্রী</text>
        </svg>
      </svg>
      <line stroke="black" x1="50%" x2="50%" y1="31.2px" y2="78px"/>
    </svg>
    <line stroke="black" x1="50%" x2="12.1212%" y1="31.2px" y2="78px"/>
    <svg width="27.2727%" x="24.2424%" y="78px">
      <defs/>
      <svg width="100%" x="0" y="0px">
        <defs/>
        <text text-anchor="middle" x="50%" y="26px">RD_PUNC</text>
      </svg>
      <svg width="100%" x="0%" y="78px">
        <defs/>
        <svg width="100%" x="0" y="0px">
          <defs/>
          <text text-anchor="middle" x="50%" y="26px">-</text>
        </svg>
      </svg>
      <line stroke="black" x1="50%" x2="50%" y1="31.2px" y2="78px"/>
    </svg>
    <line stroke="black" x1="50%" x2="37.8788%" y1="31.2px" y2="78px"/>
    <svg width="30.303%" x="51.5152%" y="78px">
      <defs/>
      <svg width="100%" x="0" y="0px">
        <defs/>
        <text text-anchor="middle" x="50%" y="26px">N_NN</text>
      </svg>
      <svg width="100%" x="0%" y="78px">
        <defs/>
        <svg width="100%" x="0" y="0px">
          <defs/>
          <text text-anchor="middle" x="50%" y="26px">পুরুষদের</text>
        </svg>
      </svg>
      <line stroke="black" x1="50%" x2="50%" y1="31.2px" y2="78px"/>
    </svg>
    <line stroke="black" x1="50%" x2="66.6667%" y1="31.2px" y2="78px"/>
    <svg width="18.1818%" x="81.8182%" y="78px">
      <defs/>
      <svg width="100%" x="0" y="0px">
        <defs/>
        <text text-anchor="middle" x="50%" y="26px">PSP</text>
      </svg>
      <svg width="100%" x="0%" y="78px">
        <defs/>
        <svg width="100%" x="0" y="0px">
          <defs/>
          <text text-anchor="middle" x="50%" y="26px">জন্য</text>
        </svg>
      </svg>
      <line stroke="black" x1="50%" x2="50%" y1="31.2px" y2="78px"/>
    </svg>
    <line stroke="black" x1="50%" x2="90.9091%" y1="31.2px" y2="78px"/>
  </svg>
  <line stroke="black" x1="50%" x2="36.194%" y1="31.2px" y2="78px"/>
  <svg width="17.1642%" x="48.5075%" y="78px">
    <defs/>
    <svg width="100%" x="0" y="0px">
      <defs/>
      <text text-anchor="middle" x="50%" y="26px">NP</text>
    </svg>
    <svg width="34.7826%" x="0%" y="78px">
      <defs/>
      <svg width="100%" x="0" y="0px">
        <defs/>
        <text text-anchor="middle" x="50%" y="26px">QT_QTF</text>
      </svg>
      <svg width="100%" x="0%" y="78px">
        <defs/>
        <svg width="100%" x="0" y="0px">
          <defs/>
          <text text-anchor="middle" x="50%" y="26px">নানা</text>
        </svg>
      </svg>
      <line stroke="black" x1="50%" x2="50%" y1="31.2px" y2="78px"/>
    </svg>
    <line stroke="black" x1="50%" x2="17.3913%" y1="31.2px" y2="78px"/>
    <svg width="65.2174%" x="34.7826%" y="78px">
      <defs/>
      <svg width="100%" x="0" y="0px">
        <defs/>
        <text text-anchor="middle" x="50%" y="26px">N_NN</text>
      </svg>
      <svg width="100%" x="0%" y="78px">
        <defs/>
        <svg width="100%" x="0" y="0px">
          <defs/>
          <text text-anchor="middle" x="50%" y="26px">প্রতিযোগিতারও</text>
        </svg>
      </svg>
      <line stroke="black" x1="50%" x2="50%" y1="31.2px" y2="78px"/>
    </svg>
    <line stroke="black" x1="50%" x2="67.3913%" y1="31.2px" y2="78px"/>
  </svg>
  <line stroke="black" x1="50%" x2="57.0896%" y1="31.2px" y2="78px"/>
  <svg width="27.6119%" x="65.6716%" y="78px">
    <defs/>
    <svg width="100%" x="0" y="0px">
      <defs/>
      <text text-anchor="middle" x="50%" y="26px">VGF</text>
    </svg>
    <svg width="21.6216%" x="0%" y="78px">
      <defs/>
      <svg width="100%" x="0" y="0px">
        <defs/>
        <text text-anchor="middle" x="50%" y="26px">N_NN</text>
      </svg>
      <svg width="100%" x="0%" y="78px">
        <defs/>
        <svg width="100%" x="0" y="0px">
          <defs/>
          <text text-anchor="middle" x="50%" y="26px">আয়োজন</text>
        </svg>
      </svg>
      <line stroke="black" x1="50%" x2="50%" y1="31.2px" y2="78px"/>
    </svg>
    <line stroke="black" x1="50%" x2="10.8108%" y1="31.2px" y2="78px"/>
    <svg width="27.027%" x="21.6216%" y="78px">
      <defs/>
      <svg width="100%" x="0" y="0px">
        <defs/>
        <text text-anchor="middle" x="50%" y="26px">V_VM_VNG</text>
      </svg>
      <svg width="100%" x="0%" y="78px">
        <defs/>
        <svg width="100%" x="0" y="0px">
          <defs/>
          <text text-anchor="middle" x="50%" y="26px">করা</text>
        </svg>
      </svg>
      <line stroke="black" x1="50%" x2="50%" y1="31.2px" y2="78px"/>
    </svg>
    <line stroke="black" x1="50%" x2="35.1351%" y1="31.2px" y2="78px"/>
    <svg width="27.027%" x="48.6486%" y="78px">
      <defs/>
      <svg width="100%" x="0" y="0px">
        <defs/>
        <text text-anchor="middle" x="50%" y="26px">V_VM_VNF</text>
      </svg>
      <svg width="100%" x="0%" y="78px">
        <defs/>
        <svg width="100%" x="0" y="0px">
          <defs/>
          <text text-anchor="middle" x="50%" y="26px">হয়ে</text>
        </svg>
      </svg>
      <line stroke="black" x1="50%" x2="50%" y1="31.2px" y2="78px"/>
    </svg>
    <line stroke="black" x1="50%" x2="62.1622%" y1="31.2px" y2="78px"/>
    <svg width="24.3243%" x="75.6757%" y="78px">
      <defs/>
      <svg width="100%" x="0" y="0px">
        <defs/>
        <text text-anchor="middle" x="50%" y="26px">V_VM_VF</text>
      </svg>
      <svg width="100%" x="0%" y="78px">
        <defs/>
        <svg width="100%" x="0" y="0px">
          <defs/>
          <text text-anchor="middle" x="50%" y="26px">থাকে</text>
        </svg>
      </svg>
      <line stroke="black" x1="50%" x2="50%" y1="31.2px" y2="78px"/>
    </svg>
    <line stroke="black" x1="50%" x2="87.8378%" y1="31.2px" y2="78px"/>
  </svg>
  <line stroke="black" x1="50%" x2="79.4776%" y1="31.2px" y2="78px"/>
  <svg width="6.71642%" x="93.2836%" y="78px">
    <defs/>
    <svg width="100%" x="0" y="0px">
      <defs/>
      <text text-anchor="middle" x="50%" y="26px">BLK</text>
    </svg>
    <svg width="100%" x="0%" y="78px">
      <defs/>
      <svg width="100%" x="0" y="0px">
        <defs/>
        <text text-anchor="middle" x="50%" y="26px">RD_PUNC</text>
      </svg>
      <svg width="100%" x="0%" y="78px">
        <defs/>
        <svg width="100%" x="0" y="0px">
          <defs/>
          <text text-anchor="middle" x="50%" y="26px">।</text>
        </svg>
      </svg>
      <line stroke="black" x1="50%" x2="50%" y1="31.2px" y2="78px"/>
    </svg>
    <line stroke="black" x1="50%" x2="50%" y1="31.2px" y2="78px"/>
  </svg>
  <line stroke="black" x1="50%" x2="96.6418%" y1="31.2px" y2="78px"/>
</svg>
