<?xml version="1.0" encoding="utf-8" ?>
<svg baseProfile="full" height="273px" preserveAspectRatio="xMidYMid meet" style="font-family: &quot;Noto Sans Bengali&quot;; font-weight:normal; font-style: normal; font-size: 26px;" version="1.1" viewBox="0,0,871.0,273.0" width="871px" xmlns="http://www.w3.org/2000/svg" xmlns:ev="http://www.w3.org/2001/xml-events" xmlns:xlink="http://www.w3.org/1999/xlink">
  <defs/>
  <svg width="100%" x="0" y="0px">
    <defs/>
    <text text-anchor="middle" x="50%" y="26px">htd19437</text>
  </svg>
  <svg width="73.1343%" x="0%" y="78px">
    <defs/>
    <svg width="100%" x="0" y="0px">
      <defs/>
      <text text-anchor="middle" x="50%" y="26px">NP</text>
    </svg>
    <svg width="16.3265%" x="0%" y="78px">
      <defs/>
      <svg width="100%" x="0" y="0px">
        <defs/>
        <text text-anchor="middle" x="50%" y="26px">DM_DMD</text>
      </svg>
      <svg width="100%" x="0%" y="78px">
        <defs/>
        <svg width="100%" x="0" y="0px">
          <defs/>
          <text text-anchor="middle" x="50%" y="26px">এই</text>
        </svg>
      </svg>
      <line stroke="black" x1="50%" x2="50%" y1="31.2px" y2="78px"/>
    </svg>
    <line stroke="black" x1="50%" x2="8.16327%" y1="31.2px" y2="78px"/>
    <svg width="14.2857%" x="16.3265%" y="78px">
      <defs/>
      <svg width="100%" x="0" y="0px">
        <defs/>
        <text text-anchor="middle" x="50%" y="26px">N_NN</text>
      </svg>
      <svg width="100%" x="0%" y="78px">
        <defs/>
        <svg width="100%" x="0" y="0px">
          <defs/>
          <text text-anchor="middle" x="50%" y="26px">স্থান</text>
        </svg>
      </svg>
      <line stroke="black" x1="50%" x2="50%" y1="31.2px" y2="78px"/>
    </svg>
    <line stroke="black" x1="50%" x2="23.4694%" y1="31.2px" y2="78px"/>
    <svg width="16.3265%" x="30.6122%" y="78px">
      <defs/>
      <svg width="100%" x="0" y="0px">
        <defs/>
        <text text-anchor="middle" x="50%" y="26px">N_NNP</text>
      </svg>
      <svg width="100%" x="0%" y="78px">
        <defs/>
        <svg width="100%" x="0" y="0px">
          <defs/>
          <text text-anchor="middle" x="50%" y="26px">চকরাতা</text>
        </svg>
      </svg>
      <line stroke="black" x1="50%" x2="50%" y1="31.2px" y2="78px"/>
    </svg>
    <line stroke="black" x1="50%" x2="38.7755%" y1="31.2px" y2="78px"/>
    <svg width="12.2449%" x="46.9388%" y="78px">
      <defs/>
      <svg width="100%" x="0" y="0px">
        <defs/>
        <text text-anchor="middle" x="50%" y="26px">PSP</text>
      </svg>
      <svg width="100%" x="0%" y="78px">
        <defs/>
        <svg width="100%" x="0" y="0px">
          <defs/>
          <text text-anchor="middle" x="50%" y="26px">থেকে</text>
        </svg>
      </svg>
      <line stroke="black" x1="50%" x2="50%" y1="31.2px" y2="78px"/>
    </svg>
    <line stroke="black" x1="50%" x2="53.0612%" y1="31.2px" y2="78px"/>
    <svg width="16.3265%" x="59.1837%" y="78px">
      <defs/>
      <svg width="100%" x="0" y="0px">
        <defs/>
        <text text-anchor="middle" x="50%" y="26px">QT_QTC</text>
      </svg>
      <svg width="100%" x="0%" y="78px">
        <defs/>
        <svg width="100%" x="0" y="0px">
          <defs/>
          <text text-anchor="middle" x="50%" y="26px">৪৫</text>
        </svg>
      </svg>
      <line stroke="black" x1="50%" x2="50%" y1="31.2px" y2="78px"/>
    </svg>
    <line stroke="black" x1="50%" x2="67.3469%" y1="31.2px" y2="78px"/>
    <svg width="12.2449%" x="75.5102%" y="78px">
      <defs/>
      <svg width="100%" x="0" y="0px">
        <defs/>
        <text text-anchor="middle" x="50%" y="26px">N_NN</text>
      </svg>
      <svg width="100%" x="0%" y="78px">
        <defs/>
        <svg width="100%" x="0" y="0px">
          <defs/>
          <text text-anchor="middle" x="50%" y="26px">কি.</text>
        </svg>
      </svg>
      <line stroke="black" x1="50%" x2="50%" y1="31.2px" y2="78px"/>
    </svg>
    <line stroke="black" x1="50%" x2="81.6327%" y1="31.2px" y2="78px"/>
    <svg width="12.2449%" x="87.7551%" y="78px">
      <defs/>
      <svg width="100%" x="0" y="0px">
        <defs/>
        <text text-anchor="middle" x="50%" y="26px">N_NN</text>
      </svg>
      <svg width="100%" x="0%" y="78px">
        <defs/>
        <svg width="100%" x="0" y="0px">
          <defs/>
          <text text-anchor="middle" x="50%" y="26px">দূরে</text>
        </svg>
      </svg>
      <line stroke="black" x1="50%" x2="50%" y1="31.2px" y2="78px"/>
    </svg>
    <line stroke="black" x1="50%" x2="93.8776%" y1="31.2px" y2="78px"/>
  </svg>
  <line stroke="black" x1="50%" x2="36.5672%" y1="31.2px" y2="78px"/>
  <svg width="13.4328%" x="73.1343%" y="78px">
    <defs/>
    <svg width="100%" x="0" y="0px">
      <defs/>
      <text text-anchor="middle" x="50%" y="26px">JJP</text>
    </svg>
    <svg width="100%" x="0%" y="78px">
      <defs/>
      <svg width="100%" x="0" y="0px">
        <defs/>
        <text text-anchor="middle" x="50%" y="26px">JJ</text>
      </svg>
      <svg width="100%" x="0%" y="78px">
        <defs/>
        <svg width="100%" x="0" y="0px">
          <defs/>
          <text text-anchor="middle" x="50%" y="26px">অবস্থিত</text>
        </svg>
      </svg>
      <line stroke="black" x1="50%" x2="50%" y1="31.2px" y2="78px"/>
    </svg>
    <line stroke="black" x1="50%" x2="50%" y1="31.2px" y2="78px"/>
  </svg>
  <line stroke="black" x1="50%" x2="79.8507%" y1="31.2px" y2="78px"/>
  <svg width="13.4328%" x="86.5672%" y="78px">
    <defs/>
    <svg width="100%" x="0" y="0px">
      <defs/>
      <text text-anchor="middle" x="50%" y="26px">BLK</text>
    </svg>
    <svg width="100%" x="0%" y="78px">
      <defs/>
      <svg width="100%" x="0" y="0px">
        <defs/>
        <text text-anchor="middle" x="50%" y="26px">RD_PUNC</text>
      </svg>
      <svg width="100%" x="0%" y="78px">
        <defs/>
        <svg width="100%" x="0" y="0px">
          <defs/>
          <text text-anchor="middle" x="50%" y="26px">৷</text>
        </svg>
      </svg>
      <line stroke="black" x1="50%" x2="50%" y1="31.2px" y2="78px"/>
    </svg>
    <line stroke="black" x1="50%" x2="50%" y1="31.2px" y2="78px"/>
  </svg>
  <line stroke="black" x1="50%" x2="93.2836%" y1="31.2px" y2="78px"/>
</svg>
