<?xml version="1.0" encoding="utf-8" ?>
<svg baseProfile="full" height="273px" preserveAspectRatio="xMidYMid meet" style="font-family: &quot;Noto Sans Bengali&quot;; font-weight:normal; font-style: normal; font-size: 26px;" version="1.1" viewBox="0,0,2132.0,273.0" width="2132px" xmlns="http://www.w3.org/2000/svg" xmlns:ev="http://www.w3.org/2001/xml-events" xmlns:xlink="http://www.w3.org/1999/xlink">
  <defs/>
  <svg width="100%" x="0" y="0px">
    <defs/>
    <text text-anchor="middle" x="50%" y="26px">htd13919</text>
  </svg>
  <svg width="10.9756%" x="0%" y="78px">
    <defs/>
    <svg width="100%" x="0" y="0px">
      <defs/>
      <text text-anchor="middle" x="50%" y="26px">VGNF</text>
    </svg>
    <svg width="44.4444%" x="0%" y="78px">
      <defs/>
      <svg width="100%" x="0" y="0px">
        <defs/>
        <text text-anchor="middle" x="50%" y="26px">N_NN</text>
      </svg>
      <svg width="100%" x="0%" y="78px">
        <defs/>
        <svg width="100%" x="0" y="0px">
          <defs/>
          <text text-anchor="middle" x="50%" y="26px">চিন্তা</text>
        </svg>
      </svg>
      <line stroke="black" x1="50%" x2="50%" y1="31.2px" y2="78px"/>
    </svg>
    <line stroke="black" x1="50%" x2="22.2222%" y1="31.2px" y2="78px"/>
    <svg width="55.5556%" x="44.4444%" y="78px">
      <defs/>
      <svg width="100%" x="0" y="0px">
        <defs/>
        <text text-anchor="middle" x="50%" y="26px">V_VM_VNF</text>
      </svg>
      <svg width="100%" x="0%" y="78px">
        <defs/>
        <svg width="100%" x="0" y="0px">
          <defs/>
          <text text-anchor="middle" x="50%" y="26px">করলে</text>
        </svg>
      </svg>
      <line stroke="black" x1="50%" x2="50%" y1="31.2px" y2="78px"/>
    </svg>
    <line stroke="black" x1="50%" x2="72.2222%" y1="31.2px" y2="78px"/>
  </svg>
  <line stroke="black" x1="50%" x2="5.4878%" y1="31.2px" y2="78px"/>
  <svg width="11.5854%" x="10.9756%" y="78px">
    <defs/>
    <svg width="100%" x="0" y="0px">
      <defs/>
      <text text-anchor="middle" x="50%" y="26px">VGF</text>
    </svg>
    <svg width="52.6316%" x="0%" y="78px">
      <defs/>
      <svg width="100%" x="0" y="0px">
        <defs/>
        <text text-anchor="middle" x="50%" y="26px">V_VM_VNG</text>
      </svg>
      <svg width="100%" x="0%" y="78px">
        <defs/>
        <svg width="100%" x="0" y="0px">
          <defs/>
          <text text-anchor="middle" x="50%" y="26px">দেখা</text>
        </svg>
      </svg>
      <line stroke="black" x1="50%" x2="50%" y1="31.2px" y2="78px"/>
    </svg>
    <line stroke="black" x1="50%" x2="26.3158%" y1="31.2px" y2="78px"/>
    <svg width="47.3684%" x="52.6316%" y="78px">
      <defs/>
      <svg width="100%" x="0" y="0px">
        <defs/>
        <text text-anchor="middle" x="50%" y="26px">V_VM_VF</text>
      </svg>
      <svg width="100%" x="0%" y="78px">
        <defs/>
        <svg width="100%" x="0" y="0px">
          <defs/>
          <text text-anchor="middle" x="50%" y="26px">যাবে</text>
        </svg>
      </svg>
      <line stroke="black" x1="50%" x2="50%" y1="31.2px" y2="78px"/>
    </svg>
    <line stroke="black" x1="50%" x2="76.3158%" y1="31.2px" y2="78px"/>
  </svg>
  <line stroke="black" x1="50%" x2="16.7683%" y1="31.2px" y2="78px"/>
  <svg width="4.87805%" x="22.561%" y="78px">
    <defs/>
    <svg width="100%" x="0" y="0px">
      <defs/>
      <text text-anchor="middle" x="50%" y="26px">CCP</text>
    </svg>
    <svg width="100%" x="0%" y="78px">
      <defs/>
      <svg width="100%" x="0" y="0px">
        <defs/>
        <text text-anchor="middle" x="50%" y="26px">RP_RPD</text>
      </svg>
      <svg width="100%" x="0%" y="78px">
        <defs/>
        <svg width="100%" x="0" y="0px">
          <defs/>
          <text text-anchor="middle" x="50%" y="26px">যে</text>
        </svg>
      </svg>
      <line stroke="black" x1="50%" x2="50%" y1="31.2px" y2="78px"/>
    </svg>
    <line stroke="black" x1="50%" x2="50%" y1="31.2px" y2="78px"/>
  </svg>
  <line stroke="black" x1="50%" x2="25%" y1="31.2px" y2="78px"/>
  <svg width="20.7317%" x="27.439%" y="78px">
    <defs/>
    <svg width="100%" x="0" y="0px">
      <defs/>
      <text text-anchor="middle" x="50%" y="26px">NP</text>
    </svg>
    <svg width="29.4118%" x="0%" y="78px">
      <defs/>
      <svg width="100%" x="0" y="0px">
        <defs/>
        <text text-anchor="middle" x="50%" y="26px">N_NN</text>
      </svg>
      <svg width="100%" x="0%" y="78px">
        <defs/>
        <svg width="100%" x="0" y="0px">
          <defs/>
          <text text-anchor="middle" x="50%" y="26px">ক্লান্তি</text>
        </svg>
      </svg>
      <line stroke="black" x1="50%" x2="50%" y1="31.2px" y2="78px"/>
    </svg>
    <line stroke="black" x1="50%" x2="14.7059%" y1="31.2px" y2="78px"/>
    <svg width="23.5294%" x="29.4118%" y="78px">
      <defs/>
      <svg width="100%" x="0" y="0px">
        <defs/>
        <text text-anchor="middle" x="50%" y="26px">QT_QTC</text>
      </svg>
      <svg width="100%" x="0%" y="78px">
        <defs/>
        <svg width="100%" x="0" y="0px">
          <defs/>
          <text text-anchor="middle" x="50%" y="26px">একটা</text>
        </svg>
      </svg>
      <line stroke="black" x1="50%" x2="50%" y1="31.2px" y2="78px"/>
    </svg>
    <line stroke="black" x1="50%" x2="41.1765%" y1="31.2px" y2="78px"/>
    <svg width="23.5294%" x="52.9412%" y="78px">
      <defs/>
      <svg width="100%" x="0" y="0px">
        <defs/>
        <text text-anchor="middle" x="50%" y="26px">JJ</text>
      </svg>
      <svg width="100%" x="0%" y="78px">
        <defs/>
        <svg width="100%" x="0" y="0px">
          <defs/>
          <text text-anchor="middle" x="50%" y="26px">মানসিক</text>
        </svg>
      </svg>
      <line stroke="black" x1="50%" x2="50%" y1="31.2px" y2="78px"/>
    </svg>
    <line stroke="black" x1="50%" x2="64.7059%" y1="31.2px" y2="78px"/>
    <svg width="23.5294%" x="76.4706%" y="78px">
      <defs/>
      <svg width="100%" x="0" y="0px">
        <defs/>
        <text text-anchor="middle" x="50%" y="26px">N_NN</text>
      </svg>
      <svg width="100%" x="0%" y="78px">
        <defs/>
        <svg width="100%" x="0" y="0px">
          <defs/>
          <text text-anchor="middle" x="50%" y="26px">অবস্থা</text>
        </svg>
      </svg>
      <line stroke="black" x1="50%" x2="50%" y1="31.2px" y2="78px"/>
    </svg>
    <line stroke="black" x1="50%" x2="88.2353%" y1="31.2px" y2="78px"/>
  </svg>
  <line stroke="black" x1="50%" x2="37.8049%" y1="31.2px" y2="78px"/>
  <svg width="4.87805%" x="48.1707%" y="78px">
    <defs/>
    <svg width="100%" x="0" y="0px">
      <defs/>
      <text text-anchor="middle" x="50%" y="26px">CCP</text>
    </svg>
    <svg width="100%" x="0%" y="78px">
      <defs/>
      <svg width="100%" x="0" y="0px">
        <defs/>
        <text text-anchor="middle" x="50%" y="26px">CC_CCS</text>
      </svg>
      <svg width="100%" x="0%" y="78px">
        <defs/>
        <svg width="100%" x="0" y="0px">
          <defs/>
          <text text-anchor="middle" x="50%" y="26px">কিন্তু</text>
        </svg>
      </svg>
      <line stroke="black" x1="50%" x2="50%" y1="31.2px" y2="78px"/>
    </svg>
    <line stroke="black" x1="50%" x2="50%" y1="31.2px" y2="78px"/>
  </svg>
  <line stroke="black" x1="50%" x2="50.6098%" y1="31.2px" y2="78px"/>
  <svg width="9.7561%" x="53.0488%" y="78px">
    <defs/>
    <svg width="100%" x="0" y="0px">
      <defs/>
      <text text-anchor="middle" x="50%" y="26px">VGNN</text>
    </svg>
    <svg width="62.5%" x="0%" y="78px">
      <defs/>
      <svg width="100%" x="0" y="0px">
        <defs/>
        <text text-anchor="middle" x="50%" y="26px">V_VM_VNG</text>
      </svg>
      <svg width="100%" x="0%" y="78px">
        <defs/>
        <svg width="100%" x="0" y="0px">
          <defs/>
          <text text-anchor="middle" x="50%" y="26px">বেড়ানোর</text>
        </svg>
      </svg>
      <line stroke="black" x1="50%" x2="50%" y1="31.2px" y2="78px"/>
    </svg>
    <line stroke="black" x1="50%" x2="31.25%" y1="31.2px" y2="78px"/>
    <svg width="37.5%" x="62.5%" y="78px">
      <defs/>
      <svg width="100%" x="0" y="0px">
        <defs/>
        <text text-anchor="middle" x="50%" y="26px">PSP</text>
      </svg>
      <svg width="100%" x="0%" y="78px">
        <defs/>
        <svg width="100%" x="0" y="0px">
          <defs/>
          <text text-anchor="middle" x="50%" y="26px">জন্য</text>
        </svg>
      </svg>
      <line stroke="black" x1="50%" x2="50%" y1="31.2px" y2="78px"/>
    </svg>
    <line stroke="black" x1="50%" x2="81.25%" y1="31.2px" y2="78px"/>
  </svg>
  <line stroke="black" x1="50%" x2="57.9268%" y1="31.2px" y2="78px"/>
  <svg width="4.26829%" x="62.8049%" y="78px">
    <defs/>
    <svg width="100%" x="0" y="0px">
      <defs/>
      <text text-anchor="middle" x="50%" y="26px">NP</text>
    </svg>
    <svg width="100%" x="0%" y="78px">
      <defs/>
      <svg width="100%" x="0" y="0px">
        <defs/>
        <text text-anchor="middle" x="50%" y="26px">N_NN</text>
      </svg>
      <svg width="100%" x="0%" y="78px">
        <defs/>
        <svg width="100%" x="0" y="0px">
          <defs/>
          <text text-anchor="middle" x="50%" y="26px">পয়সা</text>
        </svg>
      </svg>
      <line stroke="black" x1="50%" x2="50%" y1="31.2px" y2="78px"/>
    </svg>
    <line stroke="black" x1="50%" x2="50%" y1="31.2px" y2="78px"/>
  </svg>
  <line stroke="black" x1="50%" x2="64.939%" y1="31.2px" y2="78px"/>
  <svg width="4.87805%" x="67.0732%" y="78px">
    <defs/>
    <svg width="100%" x="0" y="0px">
      <defs/>
      <text text-anchor="middle" x="50%" y="26px">CCP</text>
    </svg>
    <svg width="100%" x="0%" y="78px">
      <defs/>
      <svg width="100%" x="0" y="0px">
        <defs/>
        <text text-anchor="middle" x="50%" y="26px">CC_CCD</text>
      </svg>
      <svg width="100%" x="0%" y="78px">
        <defs/>
        <svg width="100%" x="0" y="0px">
          <defs/>
          <text text-anchor="middle" x="50%" y="26px">আর</text>
        </svg>
      </svg>
      <line stroke="black" x1="50%" x2="50%" y1="31.2px" y2="78px"/>
    </svg>
    <line stroke="black" x1="50%" x2="50%" y1="31.2px" y2="78px"/>
  </svg>
  <line stroke="black" x1="50%" x2="69.5122%" y1="31.2px" y2="78px"/>
  <svg width="17.0732%" x="71.9512%" y="78px">
    <defs/>
    <svg width="100%" x="0" y="0px">
      <defs/>
      <text text-anchor="middle" x="50%" y="26px">NP</text>
    </svg>
    <svg width="21.4286%" x="0%" y="78px">
      <defs/>
      <svg width="100%" x="0" y="0px">
        <defs/>
        <text text-anchor="middle" x="50%" y="26px">N_NN</text>
      </svg>
      <svg width="100%" x="0%" y="78px">
        <defs/>
        <svg width="100%" x="0" y="0px">
          <defs/>
          <text text-anchor="middle" x="50%" y="26px">সময়</text>
        </svg>
      </svg>
      <line stroke="black" x1="50%" x2="50%" y1="31.2px" y2="78px"/>
    </svg>
    <line stroke="black" x1="50%" x2="10.7143%" y1="31.2px" y2="78px"/>
    <svg width="28.5714%" x="21.4286%" y="78px">
      <defs/>
      <svg width="100%" x="0" y="0px">
        <defs/>
        <text text-anchor="middle" x="50%" y="26px">QT_QTC</text>
      </svg>
      <svg width="100%" x="0%" y="78px">
        <defs/>
        <svg width="100%" x="0" y="0px">
          <defs/>
          <text text-anchor="middle" x="50%" y="26px">দুটোই</text>
        </svg>
      </svg>
      <line stroke="black" x1="50%" x2="50%" y1="31.2px" y2="78px"/>
    </svg>
    <line stroke="black" x1="50%" x2="35.7143%" y1="31.2px" y2="78px"/>
    <svg width="28.5714%" x="50%" y="78px">
      <defs/>
      <svg width="100%" x="0" y="0px">
        <defs/>
        <text text-anchor="middle" x="50%" y="26px">QT_QTC</text>
      </svg>
      <svg width="100%" x="0%" y="78px">
        <defs/>
        <svg width="100%" x="0" y="0px">
          <defs/>
          <text text-anchor="middle" x="50%" y="26px">এক</text>
        </svg>
      </svg>
      <line stroke="black" x1="50%" x2="50%" y1="31.2px" y2="78px"/>
    </svg>
    <line stroke="black" x1="50%" x2="64.2857%" y1="31.2px" y2="78px"/>
    <svg width="21.4286%" x="78.5714%" y="78px">
      <defs/>
      <svg width="100%" x="0" y="0px">
        <defs/>
        <text text-anchor="middle" x="50%" y="26px">PSP</text>
      </svg>
      <svg width="100%" x="0%" y="78px">
        <defs/>
        <svg width="100%" x="0" y="0px">
          <defs/>
          <text text-anchor="middle" x="50%" y="26px">সাথে</text>
        </svg>
      </svg>
      <line stroke="black" x1="50%" x2="50%" y1="31.2px" y2="78px"/>
    </svg>
    <line stroke="black" x1="50%" x2="89.2857%" y1="31.2px" y2="78px"/>
  </svg>
  <line stroke="black" x1="50%" x2="80.4878%" y1="31.2px" y2="78px"/>
  <svg width="5.4878%" x="89.0244%" y="78px">
    <defs/>
    <svg width="100%" x="0" y="0px">
      <defs/>
      <text text-anchor="middle" x="50%" y="26px">VGF</text>
    </svg>
    <svg width="100%" x="0%" y="78px">
      <defs/>
      <svg width="100%" x="0" y="0px">
        <defs/>
        <text text-anchor="middle" x="50%" y="26px">V_VM_VF</text>
      </svg>
      <svg width="100%" x="0%" y="78px">
        <defs/>
        <svg width="100%" x="0" y="0px">
          <defs/>
          <text text-anchor="middle" x="50%" y="26px">চাই</text>
        </svg>
      </svg>
      <line stroke="black" x1="50%" x2="50%" y1="31.2px" y2="78px"/>
    </svg>
    <line stroke="black" x1="50%" x2="50%" y1="31.2px" y2="78px"/>
  </svg>
  <line stroke="black" x1="50%" x2="91.7683%" y1="31.2px" y2="78px"/>
  <svg width="5.4878%" x="94.5122%" y="78px">
    <defs/>
    <svg width="100%" x="0" y="0px">
      <defs/>
      <text text-anchor="middle" x="50%" y="26px">BLK</text>
    </svg>
    <svg width="100%" x="0%" y="78px">
      <defs/>
      <svg width="100%" x="0" y="0px">
        <defs/>
        <text text-anchor="middle" x="50%" y="26px">RD_PUNC</text>
      </svg>
      <svg width="100%" x="0%" y="78px">
        <defs/>
        <svg width="100%" x="0" y="0px">
          <defs/>
          <text text-anchor="middle" x="50%" y="26px">৷</text>
        </svg>
      </svg>
      <line stroke="black" x1="50%" x2="50%" y1="31.2px" y2="78px"/>
    </svg>
    <line stroke="black" x1="50%" x2="50%" y1="31.2px" y2="78px"/>
  </svg>
  <line stroke="black" x1="50%" x2="97.2561%" y1="31.2px" y2="78px"/>
</svg>
